<svg width="113" height="21" viewBox="0 0 113 21" fill="none" xmlns="http://www.w3.org/2000/svg">
<path d="M103.55 16.9C102.014 16.9 100.832 16.474 100.004 15.622C99.188 14.77 98.78 13.306 98.78 11.23C98.78 10.09 98.822 8.638 98.906 6.874C98.99 4.882 99.038 3.652 99.05 3.184C99.05 2.92 99.14 2.698 99.32 2.518C99.512 2.326 99.746 2.23 100.022 2.23C100.298 2.23 100.526 2.326 100.706 2.518C100.898 2.71 100.988 2.938 100.976 3.202C100.964 4.018 100.922 5.218 100.85 6.802C100.766 8.566 100.724 10.042 100.724 11.23C100.724 12.574 100.952 13.564 101.408 14.2C101.876 14.824 102.59 15.136 103.55 15.136C105.662 15.136 107.486 13.612 109.022 10.564C109.13 10.336 109.298 10.186 109.526 10.114C109.766 10.03 110 10.042 110.228 10.15C110.456 10.258 110.612 10.432 110.696 10.672C110.792 10.912 110.786 11.146 110.678 11.374C108.914 15.058 106.538 16.9 103.55 16.9Z" fill="black"/>
<path d="M91.44 12.736C89.928 12.736 88.272 13.282 86.472 14.374C85.932 14.698 85.374 14.8 84.798 14.68C84.546 14.62 84.348 14.488 84.204 14.284C84.072 14.068 84.03 13.834 84.078 13.582C84.414 11.914 84.666 10.534 84.834 9.442C84.87 9.19 84.984 8.986 85.176 8.83C85.38 8.674 85.608 8.608 85.86 8.632C86.1 8.644 86.292 8.752 86.436 8.956C86.592 9.148 86.652 9.364 86.616 9.604C86.388 10.888 86.172 11.998 85.968 12.934V12.988H86.004C87.756 11.692 89.628 11.044 91.62 11.044C93.072 11.044 94.2 11.392 95.004 12.088C95.808 12.772 96.21 13.726 96.21 14.95C96.21 16.378 95.616 17.518 94.428 18.37C93.24 19.21 91.584 19.63 89.46 19.63C88.32 19.63 87.276 19.558 86.328 19.414C86.088 19.378 85.896 19.264 85.752 19.072C85.62 18.88 85.566 18.664 85.59 18.424C85.614 18.196 85.716 18.01 85.896 17.866C86.088 17.722 86.304 17.668 86.544 17.704C87.444 17.848 88.428 17.92 89.496 17.92C91.032 17.92 92.214 17.656 93.042 17.128C93.87 16.588 94.284 15.862 94.284 14.95C94.284 13.474 93.336 12.736 91.44 12.736ZM86.292 6.724C86.196 6.52 86.178 6.31 86.238 6.094C86.298 5.878 86.424 5.722 86.616 5.626C86.82 5.53 87.03 5.512 87.246 5.572C89.322 6.172 91.44 6.538 93.6 6.67C93.828 6.694 94.02 6.784 94.176 6.94C94.332 7.096 94.41 7.288 94.41 7.516C94.41 7.744 94.326 7.936 94.158 8.092C94.002 8.236 93.81 8.302 93.582 8.29C91.146 8.134 88.878 7.744 86.778 7.12C86.562 7.06 86.4 6.928 86.292 6.724Z" fill="black"/>
<path d="M75.836 11.194H72.182C72.098 11.194 72.008 11.224 71.912 11.284C71.792 11.404 71.624 11.548 71.408 11.716C71.384 11.74 71.372 11.758 71.372 11.77C71.372 11.794 71.39 11.806 71.426 11.806H76.592C76.616 11.806 76.628 11.794 76.628 11.77C76.628 11.746 76.622 11.728 76.61 11.716C76.394 11.548 76.226 11.404 76.106 11.284C76.022 11.224 75.932 11.194 75.836 11.194ZM70.094 13.786H77.906C78.002 13.786 78.05 13.738 78.05 13.642V13.156C78.05 13.048 78.002 12.994 77.906 12.994H70.094C69.998 12.994 69.95 13.048 69.95 13.156V13.642C69.95 13.738 69.998 13.786 70.094 13.786ZM78.05 15.496V14.992C78.05 14.896 78.002 14.848 77.906 14.848H70.094C69.998 14.848 69.95 14.896 69.95 14.992V15.496C69.95 15.592 69.998 15.64 70.094 15.64H77.906C78.002 15.64 78.05 15.592 78.05 15.496ZM69.554 7.504V7.954C69.554 8.05 69.602 8.098 69.698 8.098H78.302C78.398 8.098 78.446 8.05 78.446 7.954V7.504C78.446 7.408 78.398 7.36 78.302 7.36H69.698C69.602 7.36 69.554 7.408 69.554 7.504ZM69.554 5.686V6.136C69.554 6.244 69.602 6.298 69.698 6.298H78.302C78.398 6.298 78.446 6.244 78.446 6.136V5.686C78.446 5.59 78.398 5.542 78.302 5.542H69.698C69.602 5.542 69.554 5.59 69.554 5.686ZM76.052 3.778H71.948C71.84 3.778 71.786 3.826 71.786 3.922V4.21C71.786 4.306 71.84 4.354 71.948 4.354H76.052C76.148 4.354 76.196 4.306 76.196 4.21V3.922C76.196 3.826 76.148 3.778 76.052 3.778ZM67.898 13.768L67.106 14.092C66.89 14.188 66.68 14.188 66.476 14.092C66.26 13.996 66.11 13.846 66.026 13.642C65.93 13.426 65.924 13.228 66.008 13.048C66.092 12.856 66.236 12.724 66.44 12.652C67.544 12.232 68.504 11.77 69.32 11.266C69.344 11.242 69.356 11.224 69.356 11.212C69.356 11.2 69.338 11.194 69.302 11.194H66.836C66.644 11.194 66.482 11.128 66.35 10.996C66.218 10.864 66.152 10.702 66.152 10.51C66.152 10.318 66.218 10.156 66.35 10.024C66.482 9.892 66.644 9.826 66.836 9.826H71.048C71.144 9.826 71.228 9.79 71.3 9.718L71.606 9.394C71.63 9.37 71.63 9.346 71.606 9.322C71.582 9.298 71.558 9.286 71.534 9.286H69.554H68.654C68.378 9.286 68.144 9.19 67.952 8.998C67.748 8.794 67.646 8.56 67.646 8.296V5.362C67.646 5.098 67.748 4.864 67.952 4.66C68.156 4.456 68.39 4.354 68.654 4.354H69.788C69.896 4.354 69.95 4.306 69.95 4.21V3.922C69.95 3.826 69.896 3.778 69.788 3.778H66.872C66.68 3.778 66.512 3.706 66.368 3.562C66.224 3.418 66.152 3.244 66.152 3.04C66.152 2.848 66.224 2.68 66.368 2.536C66.512 2.392 66.68 2.32 66.872 2.32H69.788C69.896 2.32 69.95 2.272 69.95 2.176V2.104C69.95 1.852 70.04 1.636 70.22 1.456C70.4 1.276 70.616 1.186 70.868 1.186C71.12 1.186 71.336 1.276 71.516 1.456C71.696 1.636 71.786 1.852 71.786 2.104V2.176C71.786 2.272 71.84 2.32 71.948 2.32H76.052C76.148 2.32 76.196 2.272 76.196 2.176V2.104C76.196 1.864 76.292 1.648 76.484 1.456C76.664 1.276 76.88 1.186 77.132 1.186C77.384 1.186 77.6 1.276 77.78 1.456C77.96 1.636 78.05 1.852 78.05 2.104V2.176C78.05 2.272 78.104 2.32 78.212 2.32H81.128C81.32 2.32 81.488 2.392 81.632 2.536C81.776 2.68 81.848 2.848 81.848 3.04C81.848 3.244 81.776 3.418 81.632 3.562C81.488 3.706 81.32 3.778 81.128 3.778H78.212C78.104 3.778 78.05 3.826 78.05 3.922V4.21C78.05 4.306 78.104 4.354 78.212 4.354H79.346C79.61 4.354 79.844 4.456 80.048 4.66C80.252 4.864 80.354 5.098 80.354 5.362V8.296C80.354 8.56 80.252 8.794 80.048 8.998C79.856 9.19 79.622 9.286 79.346 9.286H73.964C73.868 9.286 73.79 9.322 73.73 9.394L73.478 9.7C73.454 9.724 73.448 9.748 73.46 9.772C73.484 9.808 73.508 9.826 73.532 9.826H81.164C81.356 9.826 81.518 9.892 81.65 10.024C81.782 10.156 81.848 10.318 81.848 10.51C81.848 10.702 81.782 10.864 81.65 10.996C81.518 11.128 81.356 11.194 81.164 11.194H78.716C78.692 11.194 78.674 11.2 78.662 11.212C78.65 11.224 78.656 11.242 78.68 11.266C79.472 11.758 80.438 12.22 81.578 12.652C81.782 12.724 81.92 12.856 81.992 13.048C82.064 13.252 82.058 13.45 81.974 13.642C81.89 13.858 81.74 14.008 81.524 14.092C81.308 14.188 81.098 14.188 80.894 14.092L80.102 13.768C80.066 13.756 80.036 13.756 80.012 13.768C79.976 13.792 79.958 13.816 79.958 13.84V16.54C79.958 16.816 79.868 17.044 79.688 17.224C79.508 17.404 79.28 17.494 79.004 17.494H78.518C78.374 17.494 78.26 17.452 78.176 17.368C78.092 17.284 78.05 17.176 78.05 17.044C78.05 16.996 78.032 16.972 77.996 16.972H70.004C69.968 16.972 69.95 16.996 69.95 17.044C69.95 17.176 69.908 17.284 69.824 17.368C69.74 17.452 69.626 17.494 69.482 17.494H68.996C68.72 17.494 68.492 17.404 68.312 17.224C68.132 17.044 68.042 16.816 68.042 16.54V13.84C68.042 13.816 68.024 13.792 67.988 13.768C67.964 13.756 67.934 13.756 67.898 13.768Z" fill="black"/>
<path d="M12.42 17.74C13.2 17.74 14.07 17.644 15.03 17.452C15.246 17.404 15.444 17.446 15.624 17.578C15.804 17.71 15.906 17.884 15.93 18.1C15.954 18.328 15.9 18.538 15.768 18.73C15.636 18.922 15.462 19.042 15.246 19.09C14.346 19.27 13.404 19.36 12.42 19.36C10.716 19.36 9.51 19.138 8.802 18.694C8.094 18.238 7.74 17.59 7.74 16.75C7.74 15.838 8.268 14.872 9.324 13.852C9.504 13.684 9.714 13.594 9.954 13.582C10.206 13.57 10.428 13.636 10.62 13.78C10.8 13.9 10.896 14.068 10.908 14.284C10.92 14.5 10.848 14.686 10.692 14.842C9.948 15.586 9.576 16.162 9.576 16.57C9.576 17.35 10.524 17.74 12.42 17.74ZM15.246 10.234C15.402 10.39 15.48 10.582 15.48 10.81C15.48 11.038 15.402 11.23 15.246 11.386C15.09 11.542 14.898 11.626 14.67 11.638C13.074 11.674 11.448 11.83 9.792 12.106C9.576 12.142 9.378 12.094 9.198 11.962C9.018 11.83 8.916 11.656 8.892 11.44C8.868 11.212 8.922 11.008 9.054 10.828C9.198 10.636 9.384 10.522 9.612 10.486C11.328 10.21 13.014 10.054 14.67 10.018C14.898 10.006 15.09 10.078 15.246 10.234ZM6.84 9.118C6.06 12.358 5.04 15.682 3.78 19.09C3.696 19.33 3.534 19.504 3.294 19.612C3.066 19.732 2.832 19.756 2.592 19.684C2.352 19.612 2.178 19.468 2.07 19.252C1.962 19.036 1.95 18.808 2.034 18.568C3.222 15.352 4.194 12.244 4.95 9.244C4.974 9.136 4.938 9.082 4.842 9.082C3.882 9.13 3.198 9.16 2.79 9.172C2.562 9.184 2.37 9.112 2.214 8.956C2.058 8.8 1.98 8.608 1.98 8.38C1.98 8.152 2.052 7.96 2.196 7.804C2.352 7.648 2.544 7.564 2.772 7.552C3.576 7.54 4.392 7.504 5.22 7.444C5.328 7.444 5.394 7.396 5.418 7.3L5.85 5.266C5.898 5.014 6.024 4.816 6.228 4.672C6.444 4.528 6.678 4.468 6.93 4.492C7.17 4.516 7.362 4.624 7.506 4.816C7.65 5.008 7.698 5.224 7.65 5.464C7.614 5.632 7.554 5.908 7.47 6.292C7.398 6.664 7.338 6.952 7.29 7.156C7.266 7.252 7.302 7.3 7.398 7.3C8.862 7.192 10.248 7.048 11.556 6.868C11.772 6.844 11.97 6.898 12.15 7.03C12.33 7.162 12.426 7.342 12.438 7.57C12.462 7.798 12.408 8.002 12.276 8.182C12.144 8.362 11.964 8.464 11.736 8.488C10.476 8.656 8.898 8.812 7.002 8.956C6.918 8.956 6.864 9.01 6.84 9.118ZM28.26 6.112C28.488 5.992 28.722 5.974 28.962 6.058C29.202 6.13 29.388 6.274 29.52 6.49C29.928 7.21 30.228 7.756 30.42 8.128C30.54 8.344 30.558 8.572 30.474 8.812C30.39 9.04 30.24 9.208 30.024 9.316C29.796 9.424 29.568 9.436 29.34 9.352C29.112 9.268 28.938 9.118 28.818 8.902L27.918 7.3C27.798 7.096 27.768 6.874 27.828 6.634C27.9 6.394 28.044 6.22 28.26 6.112ZM33.3 8.092C33.228 8.32 33.078 8.488 32.85 8.596C32.622 8.704 32.388 8.722 32.148 8.65C31.908 8.578 31.728 8.428 31.608 8.2L30.708 6.58C30.576 6.364 30.54 6.142 30.6 5.914C30.672 5.674 30.822 5.494 31.05 5.374C31.278 5.254 31.518 5.23 31.77 5.302C32.022 5.374 32.208 5.524 32.328 5.752L33.246 7.408C33.366 7.624 33.384 7.852 33.3 8.092ZM22.932 11.8C21.792 13.276 20.832 14.464 20.052 15.364C19.884 15.568 19.668 15.676 19.404 15.688C19.14 15.7 18.912 15.616 18.72 15.436C18.528 15.256 18.426 15.034 18.414 14.77C18.402 14.506 18.48 14.278 18.648 14.086C19.692 12.886 20.586 11.806 21.33 10.846C22.266 9.658 22.908 8.92 23.256 8.632C23.616 8.344 24.084 8.2 24.66 8.2C25.188 8.2 25.65 8.338 26.046 8.614C26.454 8.89 27.264 9.634 28.476 10.846C30.468 12.838 32.238 14.53 33.786 15.922C33.99 16.102 34.098 16.336 34.11 16.624C34.134 16.9 34.056 17.14 33.876 17.344C33.696 17.548 33.468 17.656 33.192 17.668C32.928 17.68 32.694 17.596 32.49 17.416C30.846 15.94 28.872 14.05 26.568 11.746C25.968 11.134 25.542 10.738 25.29 10.558C25.05 10.366 24.828 10.27 24.624 10.27C24.408 10.27 24.192 10.372 23.976 10.576C23.76 10.768 23.412 11.176 22.932 11.8ZM39.276 12.052L38.088 12.376C37.86 12.436 37.644 12.4 37.44 12.268C37.236 12.136 37.11 11.95 37.062 11.71C37.014 11.47 37.062 11.248 37.206 11.044C37.35 10.84 37.542 10.708 37.782 10.648L39.078 10.324C41.094 9.808 42.696 9.55 43.884 9.55C45.408 9.55 46.59 9.892 47.43 10.576C48.282 11.248 48.708 12.184 48.708 13.384C48.708 14.992 48.126 16.24 46.962 17.128C45.798 18.016 43.872 18.628 41.184 18.964C40.944 18.988 40.722 18.928 40.518 18.784C40.326 18.628 40.212 18.43 40.176 18.19C40.14 17.95 40.194 17.74 40.338 17.56C40.482 17.368 40.668 17.26 40.896 17.236C43.056 16.972 44.58 16.546 45.468 15.958C46.356 15.358 46.8 14.53 46.8 13.474C46.8 12.778 46.536 12.238 46.008 11.854C45.492 11.47 44.73 11.278 43.722 11.278C42.63 11.278 41.148 11.536 39.276 12.052ZM54.576 6.328C56.22 6.52 57.888 6.616 59.58 6.616C60.732 6.616 61.686 6.592 62.442 6.544C62.682 6.532 62.886 6.604 63.054 6.76C63.234 6.916 63.33 7.108 63.342 7.336C63.354 7.576 63.276 7.786 63.108 7.966C62.94 8.146 62.736 8.242 62.496 8.254C61.44 8.314 60.468 8.344 59.58 8.344C57.876 8.344 56.178 8.242 54.486 8.038C54.246 8.014 54.048 7.912 53.892 7.732C53.736 7.54 53.664 7.324 53.676 7.084C53.688 6.856 53.784 6.67 53.964 6.526C54.144 6.37 54.348 6.304 54.576 6.328ZM59.22 19.45C56.856 19.45 55.08 19.12 53.892 18.46C52.704 17.8 52.11 16.9 52.11 15.76C52.11 14.644 52.95 13.318 54.63 11.782C54.822 11.614 55.044 11.536 55.296 11.548C55.548 11.548 55.764 11.632 55.944 11.8C56.112 11.968 56.19 12.166 56.178 12.394C56.178 12.622 56.094 12.82 55.926 12.988C54.702 14.128 54.09 15.022 54.09 15.67C54.09 16.294 54.522 16.792 55.386 17.164C56.25 17.524 57.528 17.704 59.22 17.704C60.396 17.704 61.896 17.5 63.72 17.092C63.96 17.032 64.182 17.068 64.386 17.2C64.59 17.332 64.716 17.518 64.764 17.758C64.812 17.998 64.764 18.226 64.62 18.442C64.476 18.646 64.284 18.778 64.044 18.838C62.184 19.246 60.576 19.45 59.22 19.45Z" fill="black"/>
</svg>
